<svg width="14" height="16" viewBox="0 0 14 16" fill="none" xmlns="http://www.w3.org/2000/svg">
<path d="M9.00521 8L12.701 3.45136C13.1546 2.89318 13.1546 1.98818 12.701 1.42955L11.8797 0.418636C11.4261 -0.139545 10.6908 -0.139545 10.2369 0.418636L6.54109 4.96727L2.84528 0.418636C2.39175 -0.139545 1.65643 -0.139545 1.20254 0.418636L0.381162 1.42955C-0.0723664 1.98773 -0.0723664 2.89273 0.381162 3.45136L4.07697 8L0.381162 12.5486C-0.0723664 13.1068 -0.0723664 14.0118 0.381162 14.5705L1.20254 15.5814C1.65606 16.1395 2.39175 16.1395 2.84528 15.5814L6.54109 11.0327L10.2369 15.5814C10.6904 16.1395 11.4261 16.1395 11.8797 15.5814L12.701 14.5705C13.1546 14.0123 13.1546 13.1073 12.701 12.5486L9.00521 8Z" fill="#B51823"/>
</svg>
